# xmcd
# 
# Track frame offsets:
#     150
#     4772
#     17813
#     41211
#     51354
#     69702
#     80995
#     88251
#     95941
#     108002
#     121263
#     139718
#     165281
#     178090
# 
# Disc length: 2719
# 
# Revision: 0
# Processed by: cddbd v1.5.2PL0 Copyright (c) Steve Scherf et al.
# Submitted via: fre:ac v1.0.31
# 
DISCID=c10a9d0e
DTITLE=Gilles Vigneault - Arriver chez soi
DYEAR=2008
DGENRE=Folk
TTITLE0=Prologue: Les Mots
TTITLE1=Chemin faisant
TTITLE2=Lucas l'écolo
TTITLE3=Je n'ai pas cessé de t'aimer
TTITLE4=Jack Tattoo
TTITLE5=Comme tout arrive
TTITLE6=C'est dans la nature des choses
TTITLE7=Berceuse pour Marion
TTITLE8=Dévorer des kilomètres
TTITLE9=C'est à Nataskquan
TTITLE10=Une journée sans portable
TTITLE11=Internaute
TTITLE12=Arriver chez soi
TTITLE13=Épilogue: Entre musique et poésie
EXTD=
EXTT0=
EXTT1=
EXTT2=
EXTT3=
EXTT4=
EXTT5=
EXTT6=
EXTT7=
EXTT8=
EXTT9=
EXTT10=
EXTT11=
EXTT12=
EXTT13=
PLAYORDER=
